{
	"asset":{
		"generator":"Khronos glTF Blender I/O v4.1.62",
		"version":"2.0"
	},
	"extensionsUsed":[
		"KHR_texture_transform",
		"KHR_materials_clearcoat"
	],
	"extensionsRequired":[
		"KHR_texture_transform"
	],
	"scene":0,
	"scenes":[
		{
			"name":"Scene",
			"nodes":[
				0
			]
		}
	],
	"nodes":[
		{
			"extras":{
				"sparkar_optimization":{}
			},
			"mesh":0,
			"name":"Plane"
		}
	],
	"materials":[
		{
			"doubleSided":true,
			"name":"black",
			"pbrMetallicRoughness":{
				"baseColorFactor":[
					0.04974508285522461,
					0.04974508285522461,
					0.04974508285522461,
					1
				],
				"metallicFactor":0,
				"roughnessFactor":0.0476190447807312
			}
		},
		{
			"doubleSided":true,
			"emissiveTexture":{
				"extensions":{
					"KHR_texture_transform":{
						"offset":[
							0.9999999999999999,
							0.9999999880751196
						],
						"rotation":4.71238899230957
					}
				},
				"index":0
			},
			"name":"iphonestream",
			"pbrMetallicRoughness":{
				"baseColorTexture":{
					"extensions":{
						"KHR_texture_transform":{
							"offset":[
								0.9999999999999999,
								0.9999999880751196
							],
							"rotation":4.71238899230957
						}
					},
					"index":1
				},
				"metallicFactor":0,
				"roughnessFactor":0.13863599300384521
			}
		},
		{
			"doubleSided":true,
			"name":"ALUMINIUM",
			"pbrMetallicRoughness":{
				"baseColorFactor":[
					0.627419114112854,
					0.627419114112854,
					0.627419114112854,
					1
				],
				"metallicFactor":0.9750000238418579,
				"roughnessFactor":0.3272727131843567
			}
		},
		{
			"doubleSided":true,
			"name":"back",
			"pbrMetallicRoughness":{
				"baseColorTexture":{
					"index":2
				},
				"metallicFactor":0.9477273225784302,
				"roughnessFactor":0.5045454502105713
			}
		},
		{
			"doubleSided":true,
			"extensions":{
				"KHR_materials_clearcoat":{
					"clearcoatFactor":1,
					"clearcoatRoughnessFactor":0
				}
			},
			"name":"chrome",
			"pbrMetallicRoughness":{
				"baseColorFactor":[
					0.800000011920929,
					0.800000011920929,
					0.800000011920929,
					1
				],
				"metallicFactor":0.8931818008422852,
				"roughnessFactor":0
			}
		},
		{
			"doubleSided":true,
			"name":"mesh",
			"pbrMetallicRoughness":{
				"baseColorFactor":[
					0.01845245063304901,
					0.01845245063304901,
					0.01845245063304901,
					1
				],
				"metallicFactor":0.9482071995735168,
				"roughnessFactor":0.6115537881851196
			}
		}
	],
	"meshes":[
		{
			"name":"Plane.001",
			"primitives":[
				{
					"attributes":{
						"POSITION":0,
						"NORMAL":1,
						"TEXCOORD_0":2
					},
					"indices":3,
					"material":0
				},
				{
					"attributes":{
						"POSITION":4,
						"NORMAL":5,
						"TEXCOORD_0":6
					},
					"indices":7,
					"material":1
				},
				{
					"attributes":{
						"POSITION":8,
						"NORMAL":9,
						"TEXCOORD_0":10
					},
					"indices":11,
					"material":2
				},
				{
					"attributes":{
						"POSITION":12,
						"NORMAL":13,
						"TEXCOORD_0":14
					},
					"indices":15,
					"material":3
				},
				{
					"attributes":{
						"POSITION":16,
						"NORMAL":17,
						"TEXCOORD_0":18
					},
					"indices":19,
					"material":4
				},
				{
					"attributes":{
						"POSITION":20,
						"NORMAL":21,
						"TEXCOORD_0":22
					},
					"indices":23,
					"material":5
				}
			]
		}
	],
	"textures":[
		{
			"sampler":0,
			"source":0
		},
		{
			"sampler":0,
			"source":0
		},
		{
			"sampler":0,
			"source":1
		}
	],
	"images":[
		{
			"mimeType":"image/png",
			"name":"0061",
			"uri":"textures/0061.png"
		},
		{
			"mimeType":"image/jpeg",
			"name":"iphone-6-leihen-get-it-easy-500x500",
			"uri":"textures/iphone-6-leihen-get-it-easy-500x500.jpg"
		}
	],
	"accessors":[
		{
			"bufferView":0,
			"componentType":5126,
			"count":4844,
			"max":[
				0.0075876787304878235,
				2.422152519226074,
				0.8654565215110779
			],
			"min":[
				-0.16830088198184967,
				-1.2728338241577148,
				-0.8318681120872498
			],
			"type":"VEC3"
		},
		{
			"bufferView":1,
			"componentType":5126,
			"count":4844,
			"type":"VEC3"
		},
		{
			"bufferView":2,
			"componentType":5126,
			"count":4844,
			"type":"VEC2"
		},
		{
			"bufferView":3,
			"componentType":5123,
			"count":23919,
			"type":"SCALAR"
		},
		{
			"bufferView":4,
			"componentType":5126,
			"count":32,
			"max":[
				1.3104499885230325e-07,
				1.993492841720581,
				0.817040741443634
			],
			"min":[
				-1.3113751151649922e-07,
				-0.8496629595756531,
				-0.7943278551101685
			],
			"type":"VEC3"
		},
		{
			"bufferView":5,
			"componentType":5126,
			"count":32,
			"type":"VEC3"
		},
		{
			"bufferView":6,
			"componentType":5126,
			"count":32,
			"type":"VEC2"
		},
		{
			"bufferView":7,
			"componentType":5123,
			"count":90,
			"type":"SCALAR"
		},
		{
			"bufferView":8,
			"componentType":5126,
			"count":9770,
			"max":[
				1.3948185539902624e-07,
				2.422152519226074,
				0.8882733583450317
			],
			"min":[
				-0.15909868478775024,
				-1.2728339433670044,
				-0.859429121017456
			],
			"type":"VEC3"
		},
		{
			"bufferView":9,
			"componentType":5126,
			"count":9770,
			"type":"VEC3"
		},
		{
			"bufferView":10,
			"componentType":5126,
			"count":9770,
			"type":"VEC2"
		},
		{
			"bufferView":11,
			"componentType":5123,
			"count":48789,
			"type":"SCALAR"
		},
		{
			"bufferView":12,
			"componentType":5126,
			"count":386,
			"max":[
				-0.15903908014297485,
				2.4066410064697266,
				0.8499449491500854
			],
			"min":[
				-0.166251540184021,
				-1.257322072982788,
				-0.8163565397262573
			],
			"type":"VEC3"
		},
		{
			"bufferView":13,
			"componentType":5126,
			"count":386,
			"type":"VEC3"
		},
		{
			"bufferView":14,
			"componentType":5126,
			"count":386,
			"type":"VEC2"
		},
		{
			"bufferView":15,
			"componentType":5123,
			"count":1272,
			"type":"SCALAR"
		},
		{
			"bufferView":16,
			"componentType":5126,
			"count":1008,
			"max":[
				-0.038346193730831146,
				-0.798494279384613,
				0.6214468479156494
			],
			"min":[
				-0.13851326704025269,
				-1.2732683420181274,
				-0.10251706093549728
			],
			"type":"VEC3"
		},
		{
			"bufferView":17,
			"componentType":5126,
			"count":1008,
			"type":"VEC3"
		},
		{
			"bufferView":18,
			"componentType":5126,
			"count":1008,
			"type":"VEC2"
		},
		{
			"bufferView":19,
			"componentType":5123,
			"count":5556,
			"type":"SCALAR"
		},
		{
			"bufferView":20,
			"componentType":5126,
			"count":172,
			"max":[
				-0.07229400426149368,
				-1.265001893043518,
				0.4597781002521515
			],
			"min":[
				-0.10715559124946594,
				-1.2670419216156006,
				-0.6219140887260437
			],
			"type":"VEC3"
		},
		{
			"bufferView":21,
			"componentType":5126,
			"count":172,
			"type":"VEC3"
		},
		{
			"bufferView":22,
			"componentType":5126,
			"count":172,
			"type":"VEC2"
		},
		{
			"bufferView":23,
			"componentType":5123,
			"count":474,
			"type":"SCALAR"
		}
	],
	"bufferViews":[
		{
			"buffer":0,
			"byteLength":58128,
			"byteOffset":0,
			"target":34962
		},
		{
			"buffer":0,
			"byteLength":58128,
			"byteOffset":58128,
			"target":34962
		},
		{
			"buffer":0,
			"byteLength":38752,
			"byteOffset":116256,
			"target":34962
		},
		{
			"buffer":0,
			"byteLength":47838,
			"byteOffset":155008,
			"target":34963
		},
		{
			"buffer":0,
			"byteLength":384,
			"byteOffset":202848,
			"target":34962
		},
		{
			"buffer":0,
			"byteLength":384,
			"byteOffset":203232,
			"target":34962
		},
		{
			"buffer":0,
			"byteLength":256,
			"byteOffset":203616,
			"target":34962
		},
		{
			"buffer":0,
			"byteLength":180,
			"byteOffset":203872,
			"target":34963
		},
		{
			"buffer":0,
			"byteLength":117240,
			"byteOffset":204052,
			"target":34962
		},
		{
			"buffer":0,
			"byteLength":117240,
			"byteOffset":321292,
			"target":34962
		},
		{
			"buffer":0,
			"byteLength":78160,
			"byteOffset":438532,
			"target":34962
		},
		{
			"buffer":0,
			"byteLength":97578,
			"byteOffset":516692,
			"target":34963
		},
		{
			"buffer":0,
			"byteLength":4632,
			"byteOffset":614272,
			"target":34962
		},
		{
			"buffer":0,
			"byteLength":4632,
			"byteOffset":618904,
			"target":34962
		},
		{
			"buffer":0,
			"byteLength":3088,
			"byteOffset":623536,
			"target":34962
		},
		{
			"buffer":0,
			"byteLength":2544,
			"byteOffset":626624,
			"target":34963
		},
		{
			"buffer":0,
			"byteLength":12096,
			"byteOffset":629168,
			"target":34962
		},
		{
			"buffer":0,
			"byteLength":12096,
			"byteOffset":641264,
			"target":34962
		},
		{
			"buffer":0,
			"byteLength":8064,
			"byteOffset":653360,
			"target":34962
		},
		{
			"buffer":0,
			"byteLength":11112,
			"byteOffset":661424,
			"target":34963
		},
		{
			"buffer":0,
			"byteLength":2064,
			"byteOffset":672536,
			"target":34962
		},
		{
			"buffer":0,
			"byteLength":2064,
			"byteOffset":674600,
			"target":34962
		},
		{
			"buffer":0,
			"byteLength":1376,
			"byteOffset":676664,
			"target":34962
		},
		{
			"buffer":0,
			"byteLength":948,
			"byteOffset":678040,
			"target":34963
		}
	],
	"samplers":[
		{
			"magFilter":9729,
			"minFilter":9987
		}
	],
	"buffers":[
		{
			"byteLength":678988,
			"uri":"scene.bin"
		}
	]
}
