{
	"asset":{
		"generator":"Khronos glTF Blender I/O v4.1.62",
		"version":"2.0"
	},
	"extensionsUsed":[
		"KHR_materials_emissive_strength",
		"KHR_materials_clearcoat",
		"KHR_materials_transmission",
		"KHR_materials_ior"
	],
	"scene":0,
	"scenes":[
		{
			"name":"Scene",
			"nodes":[
				0
			]
		}
	],
	"nodes":[
		{
			"mesh":0,
			"name":"screen",
			"scale":[
				0.18605785071849823,
				0.18605785071849823,
				0.18605785071849823
			],
			"translation":[
				1.278562307357788,
				-0.5385764837265015,
				0
			]
		}
	],
	"materials":[
		{
			"doubleSided":true,
			"name":"AluMetal",
			"pbrMetallicRoughness":{
				"baseColorTexture":{
					"index":0
				},
				"metallicFactor":0.9689119458198547,
				"roughnessFactor":0.13181817531585693
			}
		},
		{
			"doubleSided":true,
			"emissiveTexture":{
				"index":1
			},
			"name":"macbookstream",
			"pbrMetallicRoughness":{
				"baseColorTexture":{
					"index":2
				},
				"metallicFactor":0,
				"roughnessFactor":0.5
			}
		},
		{
			"doubleSided":true,
			"name":"BlackPlastic",
			"pbrMetallicRoughness":{
				"baseColorFactor":[
					7.81448616180569e-05,
					0.0008702173363417387,
					0.0033033043146133423,
					1
				],
				"metallicFactor":0,
				"roughnessFactor":0.5628520846366882
			}
		},
		{
			"doubleSided":true,
			"emissiveFactor":[
				1,
				1,
				1
			],
			"extensions":{
				"KHR_materials_emissive_strength":{
					"emissiveStrength":10.000001907348633
				}
			},
			"name":"keyboardlight",
			"pbrMetallicRoughness":{
				"baseColorFactor":[
					0.004743797704577446,
					0.004743797704577446,
					0.004743797704577446,
					1
				],
				"metallicFactor":0,
				"roughnessFactor":0.459090918302536
			}
		},
		{
			"doubleSided":true,
			"extensions":{
				"KHR_materials_clearcoat":{
					"clearcoatFactor":0.6363636255264282,
					"clearcoatRoughnessFactor":0.03181818127632141
				}
			},
			"name":"Keys",
			"pbrMetallicRoughness":{
				"baseColorFactor":[
					0.004743797704577446,
					0.004743797704577446,
					0.004743797704577446,
					1
				],
				"metallicFactor":0,
				"roughnessFactor":0.02500000037252903
			}
		},
		{
			"doubleSided":true,
			"extensions":{
				"KHR_materials_transmission":{
					"transmissionFactor":1
				},
				"KHR_materials_ior":{
					"ior":1.4900000095367432
				}
			},
			"name":"Glass",
			"pbrMetallicRoughness":{
				"baseColorFactor":[
					0.800000011920929,
					0.800000011920929,
					0.800000011920929,
					1
				],
				"metallicFactor":0,
				"roughnessFactor":0.10377359390258789
			}
		}
	],
	"meshes":[
		{
			"name":"Cube.083",
			"primitives":[
				{
					"attributes":{
						"POSITION":0,
						"NORMAL":1,
						"TEXCOORD_0":2
					},
					"indices":3,
					"material":0
				},
				{
					"attributes":{
						"POSITION":4,
						"NORMAL":5,
						"TEXCOORD_0":6
					},
					"indices":7,
					"material":1
				},
				{
					"attributes":{
						"POSITION":8,
						"NORMAL":9,
						"TEXCOORD_0":10
					},
					"indices":11,
					"material":2
				},
				{
					"attributes":{
						"POSITION":12,
						"NORMAL":13,
						"TEXCOORD_0":14
					},
					"indices":15,
					"material":3
				},
				{
					"attributes":{
						"POSITION":16,
						"NORMAL":17,
						"TEXCOORD_0":18
					},
					"indices":19,
					"material":4
				},
				{
					"attributes":{
						"POSITION":20,
						"NORMAL":21,
						"TEXCOORD_0":22
					},
					"indices":23,
					"material":5
				}
			]
		}
	],
	"textures":[
		{
			"sampler":0,
			"source":0
		},
		{
			"sampler":0,
			"source":1
		},
		{
			"sampler":0,
			"source":1
		}
	],
	"images":[
		{
			"mimeType":"image/jpeg",
			"name":"MACBACK",
			"uri":"textures/MACBACK.jpg"
		},
		{
			"mimeType":"image/jpeg",
			"name":"juliansowka_thesis-6",
			"uri":"textures/juliansowka_thesis-6.jpg"
		}
	],
	"accessors":[
		{
			"bufferView":0,
			"componentType":5126,
			"count":13267,
			"max":[
				-0.06908226013183594,
				9.669200897216797,
				7.672304153442383
			],
			"min":[
				-10.354473114013672,
				-0.7005875110626221,
				-6.918084621429443
			],
			"type":"VEC3"
		},
		{
			"bufferView":1,
			"componentType":5126,
			"count":13267,
			"type":"VEC3"
		},
		{
			"bufferView":2,
			"componentType":5126,
			"count":13267,
			"type":"VEC2"
		},
		{
			"bufferView":3,
			"componentType":5123,
			"count":70716,
			"type":"SCALAR"
		},
		{
			"bufferView":4,
			"componentType":5126,
			"count":9,
			"max":[
				-10.182293891906738,
				9.339693069458008,
				7.276740074157715
			],
			"min":[
				-10.182293891906738,
				0.37909191846847534,
				-6.648517608642578
			],
			"type":"VEC3"
		},
		{
			"bufferView":5,
			"componentType":5126,
			"count":9,
			"type":"VEC3"
		},
		{
			"bufferView":6,
			"componentType":5126,
			"count":9,
			"type":"VEC2"
		},
		{
			"bufferView":7,
			"componentType":5123,
			"count":24,
			"type":"SCALAR"
		},
		{
			"bufferView":8,
			"componentType":5126,
			"count":258113,
			"max":[
				-4.475147247314453,
				9.669200897216797,
				7.661397933959961
			],
			"min":[
				-10.182294845581055,
				-0.4179871082305908,
				-6.918084621429443
			],
			"type":"VEC3"
		},
		{
			"bufferView":9,
			"componentType":5126,
			"count":258113,
			"type":"VEC3"
		},
		{
			"bufferView":10,
			"componentType":5126,
			"count":258113,
			"type":"VEC2"
		},
		{
			"bufferView":11,
			"componentType":5125,
			"count":1428726,
			"type":"SCALAR"
		},
		{
			"bufferView":12,
			"componentType":5126,
			"count":504284,
			"max":[
				-4.568434715270996,
				-0.1654791235923767,
				5.984116554260254
			],
			"min":[
				-9.070517539978027,
				-0.3002672791481018,
				-5.1718292236328125
			],
			"type":"VEC3"
		},
		{
			"bufferView":13,
			"componentType":5126,
			"count":504284,
			"type":"VEC3"
		},
		{
			"bufferView":14,
			"componentType":5126,
			"count":504284,
			"type":"VEC2"
		},
		{
			"bufferView":15,
			"componentType":5125,
			"count":2795652,
			"type":"SCALAR"
		},
		{
			"bufferView":16,
			"componentType":5126,
			"count":64,
			"max":[
				-8.487994194030762,
				-0.06799517571926117,
				-4.649966716766357
			],
			"min":[
				-8.907171249389648,
				-0.06799517571926117,
				-5.069146156311035
			],
			"type":"VEC3"
		},
		{
			"bufferView":17,
			"componentType":5126,
			"count":64,
			"type":"VEC3"
		},
		{
			"bufferView":18,
			"componentType":5126,
			"count":64,
			"type":"VEC2"
		},
		{
			"bufferView":19,
			"componentType":5123,
			"count":186,
			"type":"SCALAR"
		},
		{
			"bufferView":20,
			"componentType":5126,
			"count":120,
			"max":[
				-10.159106254577637,
				9.339693069458008,
				7.276740074157715
			],
			"min":[
				-10.182294845581055,
				0.37909191846847534,
				-6.648517608642578
			],
			"type":"VEC3"
		},
		{
			"bufferView":21,
			"componentType":5126,
			"count":120,
			"type":"VEC3"
		},
		{
			"bufferView":22,
			"componentType":5126,
			"count":120,
			"type":"VEC2"
		},
		{
			"bufferView":23,
			"componentType":5123,
			"count":378,
			"type":"SCALAR"
		}
	],
	"bufferViews":[
		{
			"buffer":0,
			"byteLength":159204,
			"byteOffset":0,
			"target":34962
		},
		{
			"buffer":0,
			"byteLength":159204,
			"byteOffset":159204,
			"target":34962
		},
		{
			"buffer":0,
			"byteLength":106136,
			"byteOffset":318408,
			"target":34962
		},
		{
			"buffer":0,
			"byteLength":141432,
			"byteOffset":424544,
			"target":34963
		},
		{
			"buffer":0,
			"byteLength":108,
			"byteOffset":565976,
			"target":34962
		},
		{
			"buffer":0,
			"byteLength":108,
			"byteOffset":566084,
			"target":34962
		},
		{
			"buffer":0,
			"byteLength":72,
			"byteOffset":566192,
			"target":34962
		},
		{
			"buffer":0,
			"byteLength":48,
			"byteOffset":566264,
			"target":34963
		},
		{
			"buffer":0,
			"byteLength":3097356,
			"byteOffset":566312,
			"target":34962
		},
		{
			"buffer":0,
			"byteLength":3097356,
			"byteOffset":3663668,
			"target":34962
		},
		{
			"buffer":0,
			"byteLength":2064904,
			"byteOffset":6761024,
			"target":34962
		},
		{
			"buffer":0,
			"byteLength":5714904,
			"byteOffset":8825928,
			"target":34963
		},
		{
			"buffer":0,
			"byteLength":6051408,
			"byteOffset":14540832,
			"target":34962
		},
		{
			"buffer":0,
			"byteLength":6051408,
			"byteOffset":20592240,
			"target":34962
		},
		{
			"buffer":0,
			"byteLength":4034272,
			"byteOffset":26643648,
			"target":34962
		},
		{
			"buffer":0,
			"byteLength":11182608,
			"byteOffset":30677920,
			"target":34963
		},
		{
			"buffer":0,
			"byteLength":768,
			"byteOffset":41860528,
			"target":34962
		},
		{
			"buffer":0,
			"byteLength":768,
			"byteOffset":41861296,
			"target":34962
		},
		{
			"buffer":0,
			"byteLength":512,
			"byteOffset":41862064,
			"target":34962
		},
		{
			"buffer":0,
			"byteLength":372,
			"byteOffset":41862576,
			"target":34963
		},
		{
			"buffer":0,
			"byteLength":1440,
			"byteOffset":41862948,
			"target":34962
		},
		{
			"buffer":0,
			"byteLength":1440,
			"byteOffset":41864388,
			"target":34962
		},
		{
			"buffer":0,
			"byteLength":960,
			"byteOffset":41865828,
			"target":34962
		},
		{
			"buffer":0,
			"byteLength":756,
			"byteOffset":41866788,
			"target":34963
		}
	],
	"samplers":[
		{
			"magFilter":9729,
			"minFilter":9987
		}
	],
	"buffers":[
		{
			"byteLength":41867544,
			"uri":"scene.bin"
		}
	]
}
