{
	"asset":{
		"generator":"Khronos glTF Blender I/O v4.1.62",
		"version":"2.0"
	},
	"extensionsUsed":[
		"KHR_materials_clearcoat",
		"KHR_materials_sheen"
	],
	"scene":0,
	"scenes":[
		{
			"name":"Scene",
			"nodes":[
				0
			]
		}
	],
	"nodes":[
		{
			"mesh":0,
			"name":"Plane.001",
			"rotation":[
				0,
				0.7071068286895752,
				0,
				0.7071068286895752
			]
		}
	],
	"materials":[
		{
			"doubleSided":true,
			"emissiveTexture":{
				"index":0
			},
			"name":"macclassicstream",
			"pbrMetallicRoughness":{
				"baseColorTexture":{
					"index":1
				},
				"metallicFactor":0,
				"roughnessFactor":0.03863636404275894
			}
		},
		{
			"doubleSided":true,
			"name":"Material.001",
			"pbrMetallicRoughness":{
				"baseColorFactor":[
					0.34602418541908264,
					0.33231696486473083,
					0.22525683045387268,
					1
				],
				"metallicFactor":0,
				"roughnessFactor":0.5
			}
		},
		{
			"doubleSided":true,
			"name":"Black Plastic",
			"pbrMetallicRoughness":{
				"baseColorFactor":[
					0.019736530259251595,
					0.019736530259251595,
					0.019736530259251595,
					1
				],
				"metallicFactor":0,
				"roughnessFactor":0.7142857313156128
			}
		},
		{
			"doubleSided":true,
			"name":"chrome",
			"pbrMetallicRoughness":{
				"baseColorFactor":[
					0.800000011920929,
					0.800000011920929,
					0.800000011920929,
					1
				],
				"metallicFactor":0.89682537317276,
				"roughnessFactor":0.1031745970249176
			}
		},
		{
			"doubleSided":true,
			"extensions":{
				"KHR_materials_clearcoat":{
					"clearcoatFactor":0.39232420921325684,
					"clearcoatRoughnessFactor":0.6481817960739136
				},
				"KHR_materials_sheen":{
					"sheenColorFactor":[
						0.9768063426017761,
						1.0,
						0.3237432837486267
					],
					"sheenRoughnessFactor":0.32499998807907104
				}
			},
			"name":"Material.002",
			"pbrMetallicRoughness":{
				"baseColorFactor":[
					0.5180930495262146,
					0.46387213468551636,
					0.3573110103607178,
					1
				],
				"metallicFactor":0.07547169923782349,
				"roughnessFactor":0.8094428181648254
			}
		}
	],
	"meshes":[
		{
			"name":"Plane.001",
			"primitives":[
				{
					"attributes":{
						"POSITION":0,
						"NORMAL":1,
						"TEXCOORD_0":2
					},
					"indices":3,
					"material":0
				},
				{
					"attributes":{
						"POSITION":4,
						"NORMAL":5,
						"TEXCOORD_0":6
					},
					"indices":7,
					"material":1
				},
				{
					"attributes":{
						"POSITION":8,
						"NORMAL":9,
						"TEXCOORD_0":10
					},
					"indices":11,
					"material":2
				},
				{
					"attributes":{
						"POSITION":12,
						"NORMAL":13,
						"TEXCOORD_0":14
					},
					"indices":15,
					"material":3
				},
				{
					"attributes":{
						"POSITION":16,
						"NORMAL":17,
						"TEXCOORD_0":18
					},
					"indices":19,
					"material":4
				}
			]
		}
	],
	"textures":[
		{
			"sampler":0,
			"source":0
		},
		{
			"sampler":0,
			"source":0
		}
	],
	"images":[
		{
			"mimeType":"image/png",
			"name":"Bildschirmfoto 2024-12-02 um 17.48.23",
			"uri":"textures/Bildschirmfoto%202024-12-02%20um%2017_48_23.png"
		}
	],
	"accessors":[
		{
			"bufferView":0,
			"componentType":5126,
			"count":4,
			"max":[
				0.8446084260940552,
				1.1066346168518066,
				-0.029138151556253433
			],
			"min":[
				-0.941238522529602,
				-0.3180142045021057,
				-0.029138151556253433
			],
			"type":"VEC3"
		},
		{
			"bufferView":1,
			"componentType":5126,
			"count":4,
			"type":"VEC3"
		},
		{
			"bufferView":2,
			"componentType":5126,
			"count":4,
			"type":"VEC2"
		},
		{
			"bufferView":3,
			"componentType":5123,
			"count":6,
			"type":"SCALAR"
		},
		{
			"bufferView":4,
			"componentType":5126,
			"count":65819,
			"max":[
				1.0755113363265991,
				1.3803362846374512,
				0.024579105898737907
			],
			"min":[
				-1.1838973760604858,
				-1.6255295276641846,
				-2.2988767623901367
			],
			"type":"VEC3"
		},
		{
			"bufferView":5,
			"componentType":5126,
			"count":65819,
			"type":"VEC3"
		},
		{
			"bufferView":6,
			"componentType":5126,
			"count":65819,
			"type":"VEC2"
		},
		{
			"bufferView":7,
			"componentType":5125,
			"count":110739,
			"type":"SCALAR"
		},
		{
			"bufferView":8,
			"componentType":5126,
			"count":5512,
			"max":[
				1.04007887840271,
				1.203690767288208,
				-0.12805399298667908
			],
			"min":[
				-1.118377447128296,
				-1.5579310655593872,
				-2.624216079711914
			],
			"type":"VEC3"
		},
		{
			"bufferView":9,
			"componentType":5126,
			"count":5512,
			"type":"VEC3"
		},
		{
			"bufferView":10,
			"componentType":5126,
			"count":5512,
			"type":"VEC2"
		},
		{
			"bufferView":11,
			"componentType":5123,
			"count":13617,
			"type":"SCALAR"
		},
		{
			"bufferView":12,
			"componentType":5126,
			"count":12,
			"max":[
				1.0227818489074707,
				-0.0023240596055984497,
				-2.3571462631225586
			],
			"min":[
				-1.0697318315505981,
				-1.020423412322998,
				-2.563051700592041
			],
			"type":"VEC3"
		},
		{
			"bufferView":13,
			"componentType":5126,
			"count":12,
			"type":"VEC3"
		},
		{
			"bufferView":14,
			"componentType":5126,
			"count":12,
			"type":"VEC2"
		},
		{
			"bufferView":15,
			"componentType":5123,
			"count":18,
			"type":"SCALAR"
		},
		{
			"bufferView":16,
			"componentType":5126,
			"count":9351,
			"max":[
				1.087436318397522,
				1.3948094844818115,
				0.051366399973630905
			],
			"min":[
				-1.1838973760604858,
				-1.626922845840454,
				-2.709505319595337
			],
			"type":"VEC3"
		},
		{
			"bufferView":17,
			"componentType":5126,
			"count":9351,
			"type":"VEC3"
		},
		{
			"bufferView":18,
			"componentType":5126,
			"count":9351,
			"type":"VEC2"
		},
		{
			"bufferView":19,
			"componentType":5123,
			"count":29055,
			"type":"SCALAR"
		}
	],
	"bufferViews":[
		{
			"buffer":0,
			"byteLength":48,
			"byteOffset":0,
			"target":34962
		},
		{
			"buffer":0,
			"byteLength":48,
			"byteOffset":48,
			"target":34962
		},
		{
			"buffer":0,
			"byteLength":32,
			"byteOffset":96,
			"target":34962
		},
		{
			"buffer":0,
			"byteLength":12,
			"byteOffset":128,
			"target":34963
		},
		{
			"buffer":0,
			"byteLength":789828,
			"byteOffset":140,
			"target":34962
		},
		{
			"buffer":0,
			"byteLength":789828,
			"byteOffset":789968,
			"target":34962
		},
		{
			"buffer":0,
			"byteLength":526552,
			"byteOffset":1579796,
			"target":34962
		},
		{
			"buffer":0,
			"byteLength":442956,
			"byteOffset":2106348,
			"target":34963
		},
		{
			"buffer":0,
			"byteLength":66144,
			"byteOffset":2549304,
			"target":34962
		},
		{
			"buffer":0,
			"byteLength":66144,
			"byteOffset":2615448,
			"target":34962
		},
		{
			"buffer":0,
			"byteLength":44096,
			"byteOffset":2681592,
			"target":34962
		},
		{
			"buffer":0,
			"byteLength":27234,
			"byteOffset":2725688,
			"target":34963
		},
		{
			"buffer":0,
			"byteLength":144,
			"byteOffset":2752924,
			"target":34962
		},
		{
			"buffer":0,
			"byteLength":144,
			"byteOffset":2753068,
			"target":34962
		},
		{
			"buffer":0,
			"byteLength":96,
			"byteOffset":2753212,
			"target":34962
		},
		{
			"buffer":0,
			"byteLength":36,
			"byteOffset":2753308,
			"target":34963
		},
		{
			"buffer":0,
			"byteLength":112212,
			"byteOffset":2753344,
			"target":34962
		},
		{
			"buffer":0,
			"byteLength":112212,
			"byteOffset":2865556,
			"target":34962
		},
		{
			"buffer":0,
			"byteLength":74808,
			"byteOffset":2977768,
			"target":34962
		},
		{
			"buffer":0,
			"byteLength":58110,
			"byteOffset":3052576,
			"target":34963
		}
	],
	"samplers":[
		{
			"magFilter":9729,
			"minFilter":9987
		}
	],
	"buffers":[
		{
			"byteLength":3110688,
			"uri":"scene.bin"
		}
	]
}
